<mxfile host="Electron" agent="Mozilla/5.0 (Windows NT 10.0; Win64; x64) AppleWebKit/537.36 (KHTML, like Gecko) draw.io/26.0.4 Chrome/128.0.6613.186 Electron/32.2.5 Safari/537.36" version="26.0.4">
  <diagram name="Pagina-1" id="LmPYzR0Sc6efJqcov6TF">
    <mxGraphModel dx="2130" dy="2702" grid="1" gridSize="10" guides="1" tooltips="1" connect="1" arrows="1" fold="1" page="1" pageScale="1" pageWidth="827" pageHeight="1169" math="0" shadow="0">
      <root>
        <mxCell id="0" />
        <mxCell id="1" parent="0" />
        <mxCell id="kD_PjFbSkgv6lHSdd8yk-1" value="GeoControl System" style="swimlane;fontStyle=0;childLayout=stackLayout;horizontal=1;startSize=26;fillColor=none;horizontalStack=0;resizeParent=1;resizeParentMax=0;resizeLast=0;collapsible=1;marginBottom=0;whiteSpace=wrap;html=1;" vertex="1" parent="1">
          <mxGeometry x="274" y="110" width="140" height="78" as="geometry" />
        </mxCell>
        <mxCell id="kD_PjFbSkgv6lHSdd8yk-2" value="+ name: String" style="text;strokeColor=none;fillColor=none;align=left;verticalAlign=top;spacingLeft=4;spacingRight=4;overflow=hidden;rotatable=0;points=[[0,0.5],[1,0.5]];portConstraint=eastwest;whiteSpace=wrap;html=1;" vertex="1" parent="kD_PjFbSkgv6lHSdd8yk-1">
          <mxGeometry y="26" width="140" height="26" as="geometry" />
        </mxCell>
        <mxCell id="kD_PjFbSkgv6lHSdd8yk-4" value="+ code: String" style="text;strokeColor=none;fillColor=none;align=left;verticalAlign=top;spacingLeft=4;spacingRight=4;overflow=hidden;rotatable=0;points=[[0,0.5],[1,0.5]];portConstraint=eastwest;whiteSpace=wrap;html=1;" vertex="1" parent="kD_PjFbSkgv6lHSdd8yk-1">
          <mxGeometry y="52" width="140" height="26" as="geometry" />
        </mxCell>
        <mxCell id="kD_PjFbSkgv6lHSdd8yk-12" value="Authentication Token" style="swimlane;fontStyle=0;childLayout=stackLayout;horizontal=1;startSize=26;fillColor=none;horizontalStack=0;resizeParent=1;resizeParentMax=0;resizeLast=0;collapsible=1;marginBottom=0;whiteSpace=wrap;html=1;" vertex="1" parent="1">
          <mxGeometry x="490" y="200" width="140" height="52" as="geometry" />
        </mxCell>
        <mxCell id="kD_PjFbSkgv6lHSdd8yk-13" value="+ id: String" style="text;strokeColor=none;fillColor=none;align=left;verticalAlign=top;spacingLeft=4;spacingRight=4;overflow=hidden;rotatable=0;points=[[0,0.5],[1,0.5]];portConstraint=eastwest;whiteSpace=wrap;html=1;" vertex="1" parent="kD_PjFbSkgv6lHSdd8yk-12">
          <mxGeometry y="26" width="140" height="26" as="geometry" />
        </mxCell>
        <mxCell id="kD_PjFbSkgv6lHSdd8yk-15" value="Viewer" style="swimlane;fontStyle=0;childLayout=stackLayout;horizontal=1;startSize=26;fillColor=none;horizontalStack=0;resizeParent=1;resizeParentMax=0;resizeLast=0;collapsible=1;marginBottom=0;whiteSpace=wrap;html=1;" vertex="1" parent="1">
          <mxGeometry x="720" y="132" width="140" height="78" as="geometry" />
        </mxCell>
        <mxCell id="kD_PjFbSkgv6lHSdd8yk-16" value="+ username: String" style="text;strokeColor=none;fillColor=none;align=left;verticalAlign=top;spacingLeft=4;spacingRight=4;overflow=hidden;rotatable=0;points=[[0,0.5],[1,0.5]];portConstraint=eastwest;whiteSpace=wrap;html=1;" vertex="1" parent="kD_PjFbSkgv6lHSdd8yk-15">
          <mxGeometry y="26" width="140" height="26" as="geometry" />
        </mxCell>
        <mxCell id="kD_PjFbSkgv6lHSdd8yk-17" value="+ password: String" style="text;strokeColor=none;fillColor=none;align=left;verticalAlign=top;spacingLeft=4;spacingRight=4;overflow=hidden;rotatable=0;points=[[0,0.5],[1,0.5]];portConstraint=eastwest;whiteSpace=wrap;html=1;" vertex="1" parent="kD_PjFbSkgv6lHSdd8yk-15">
          <mxGeometry y="52" width="140" height="26" as="geometry" />
        </mxCell>
        <mxCell id="kD_PjFbSkgv6lHSdd8yk-19" value="Transaction" style="swimlane;fontStyle=0;childLayout=stackLayout;horizontal=1;startSize=26;fillColor=none;horizontalStack=0;resizeParent=1;resizeParentMax=0;resizeLast=0;collapsible=1;marginBottom=0;whiteSpace=wrap;html=1;" vertex="1" parent="1">
          <mxGeometry x="490" y="42" width="140" height="52" as="geometry" />
        </mxCell>
        <mxCell id="kD_PjFbSkgv6lHSdd8yk-20" value="+ id: int" style="text;strokeColor=none;fillColor=none;align=left;verticalAlign=top;spacingLeft=4;spacingRight=4;overflow=hidden;rotatable=0;points=[[0,0.5],[1,0.5]];portConstraint=eastwest;whiteSpace=wrap;html=1;" vertex="1" parent="kD_PjFbSkgv6lHSdd8yk-19">
          <mxGeometry y="26" width="140" height="26" as="geometry" />
        </mxCell>
        <mxCell id="kD_PjFbSkgv6lHSdd8yk-21" value="Payment Service" style="swimlane;fontStyle=0;childLayout=stackLayout;horizontal=1;startSize=26;fillColor=none;horizontalStack=0;resizeParent=1;resizeParentMax=0;resizeLast=0;collapsible=1;marginBottom=0;whiteSpace=wrap;html=1;" vertex="1" parent="1">
          <mxGeometry x="730" y="30" width="140" height="52" as="geometry" />
        </mxCell>
        <mxCell id="kD_PjFbSkgv6lHSdd8yk-22" value="+ name: String" style="text;strokeColor=none;fillColor=none;align=left;verticalAlign=top;spacingLeft=4;spacingRight=4;overflow=hidden;rotatable=0;points=[[0,0.5],[1,0.5]];portConstraint=eastwest;whiteSpace=wrap;html=1;" vertex="1" parent="kD_PjFbSkgv6lHSdd8yk-21">
          <mxGeometry y="26" width="140" height="26" as="geometry" />
        </mxCell>
        <mxCell id="kD_PjFbSkgv6lHSdd8yk-23" value="Database Host" style="swimlane;fontStyle=0;childLayout=stackLayout;horizontal=1;startSize=26;fillColor=none;horizontalStack=0;resizeParent=1;resizeParentMax=0;resizeLast=0;collapsible=1;marginBottom=0;whiteSpace=wrap;html=1;" vertex="1" parent="1">
          <mxGeometry x="500" y="-150" width="140" height="104" as="geometry" />
        </mxCell>
        <mxCell id="kD_PjFbSkgv6lHSdd8yk-24" value="+ name: String" style="text;strokeColor=none;fillColor=none;align=left;verticalAlign=top;spacingLeft=4;spacingRight=4;overflow=hidden;rotatable=0;points=[[0,0.5],[1,0.5]];portConstraint=eastwest;whiteSpace=wrap;html=1;" vertex="1" parent="kD_PjFbSkgv6lHSdd8yk-23">
          <mxGeometry y="26" width="140" height="26" as="geometry" />
        </mxCell>
        <mxCell id="kD_PjFbSkgv6lHSdd8yk-25" value="+ dbType: String" style="text;strokeColor=none;fillColor=none;align=left;verticalAlign=top;spacingLeft=4;spacingRight=4;overflow=hidden;rotatable=0;points=[[0,0.5],[1,0.5]];portConstraint=eastwest;whiteSpace=wrap;html=1;" vertex="1" parent="kD_PjFbSkgv6lHSdd8yk-23">
          <mxGeometry y="52" width="140" height="26" as="geometry" />
        </mxCell>
        <mxCell id="kD_PjFbSkgv6lHSdd8yk-30" value="+ mean: Float" style="text;strokeColor=none;fillColor=none;align=left;verticalAlign=top;spacingLeft=4;spacingRight=4;overflow=hidden;rotatable=0;points=[[0,0.5],[1,0.5]];portConstraint=eastwest;whiteSpace=wrap;html=1;" vertex="1" parent="kD_PjFbSkgv6lHSdd8yk-23">
          <mxGeometry y="78" width="140" height="26" as="geometry" />
        </mxCell>
        <mxCell id="kD_PjFbSkgv6lHSdd8yk-26" value="Stats" style="swimlane;fontStyle=0;childLayout=stackLayout;horizontal=1;startSize=26;fillColor=none;horizontalStack=0;resizeParent=1;resizeParentMax=0;resizeLast=0;collapsible=1;marginBottom=0;whiteSpace=wrap;html=1;" vertex="1" parent="1">
          <mxGeometry x="274" y="-210" width="140" height="182" as="geometry" />
        </mxCell>
        <mxCell id="kD_PjFbSkgv6lHSdd8yk-27" value="+ startDate: DateTime" style="text;strokeColor=none;fillColor=none;align=left;verticalAlign=top;spacingLeft=4;spacingRight=4;overflow=hidden;rotatable=0;points=[[0,0.5],[1,0.5]];portConstraint=eastwest;whiteSpace=wrap;html=1;" vertex="1" parent="kD_PjFbSkgv6lHSdd8yk-26">
          <mxGeometry y="26" width="140" height="26" as="geometry" />
        </mxCell>
        <mxCell id="kD_PjFbSkgv6lHSdd8yk-28" value="+ endDate: DateTime" style="text;strokeColor=none;fillColor=none;align=left;verticalAlign=top;spacingLeft=4;spacingRight=4;overflow=hidden;rotatable=0;points=[[0,0.5],[1,0.5]];portConstraint=eastwest;whiteSpace=wrap;html=1;" vertex="1" parent="kD_PjFbSkgv6lHSdd8yk-26">
          <mxGeometry y="52" width="140" height="26" as="geometry" />
        </mxCell>
        <mxCell id="kD_PjFbSkgv6lHSdd8yk-31" value="+ mean: Float" style="text;strokeColor=none;fillColor=none;align=left;verticalAlign=top;spacingLeft=4;spacingRight=4;overflow=hidden;rotatable=0;points=[[0,0.5],[1,0.5]];portConstraint=eastwest;whiteSpace=wrap;html=1;" vertex="1" parent="kD_PjFbSkgv6lHSdd8yk-26">
          <mxGeometry y="78" width="140" height="26" as="geometry" />
        </mxCell>
        <mxCell id="kD_PjFbSkgv6lHSdd8yk-33" value="+ variance: Float" style="text;strokeColor=none;fillColor=none;align=left;verticalAlign=top;spacingLeft=4;spacingRight=4;overflow=hidden;rotatable=0;points=[[0,0.5],[1,0.5]];portConstraint=eastwest;whiteSpace=wrap;html=1;" vertex="1" parent="kD_PjFbSkgv6lHSdd8yk-26">
          <mxGeometry y="104" width="140" height="26" as="geometry" />
        </mxCell>
        <mxCell id="kD_PjFbSkgv6lHSdd8yk-34" value="+ max: Float" style="text;strokeColor=none;fillColor=none;align=left;verticalAlign=top;spacingLeft=4;spacingRight=4;overflow=hidden;rotatable=0;points=[[0,0.5],[1,0.5]];portConstraint=eastwest;whiteSpace=wrap;html=1;" vertex="1" parent="kD_PjFbSkgv6lHSdd8yk-26">
          <mxGeometry y="130" width="140" height="26" as="geometry" />
        </mxCell>
        <mxCell id="kD_PjFbSkgv6lHSdd8yk-29" value="+ min: Float" style="text;strokeColor=none;fillColor=none;align=left;verticalAlign=top;spacingLeft=4;spacingRight=4;overflow=hidden;rotatable=0;points=[[0,0.5],[1,0.5]];portConstraint=eastwest;whiteSpace=wrap;html=1;" vertex="1" parent="kD_PjFbSkgv6lHSdd8yk-26">
          <mxGeometry y="156" width="140" height="26" as="geometry" />
        </mxCell>
        <mxCell id="kD_PjFbSkgv6lHSdd8yk-39" value="Administrator" style="swimlane;fontStyle=0;childLayout=stackLayout;horizontal=1;startSize=26;fillColor=none;horizontalStack=0;resizeParent=1;resizeParentMax=0;resizeLast=0;collapsible=1;marginBottom=0;whiteSpace=wrap;html=1;" vertex="1" parent="1">
          <mxGeometry x="190" y="390" width="140" height="78" as="geometry" />
        </mxCell>
        <mxCell id="kD_PjFbSkgv6lHSdd8yk-40" value="+ username: String" style="text;strokeColor=none;fillColor=none;align=left;verticalAlign=top;spacingLeft=4;spacingRight=4;overflow=hidden;rotatable=0;points=[[0,0.5],[1,0.5]];portConstraint=eastwest;whiteSpace=wrap;html=1;" vertex="1" parent="kD_PjFbSkgv6lHSdd8yk-39">
          <mxGeometry y="26" width="140" height="26" as="geometry" />
        </mxCell>
        <mxCell id="kD_PjFbSkgv6lHSdd8yk-41" value="+ password: String" style="text;strokeColor=none;fillColor=none;align=left;verticalAlign=top;spacingLeft=4;spacingRight=4;overflow=hidden;rotatable=0;points=[[0,0.5],[1,0.5]];portConstraint=eastwest;whiteSpace=wrap;html=1;" vertex="1" parent="kD_PjFbSkgv6lHSdd8yk-39">
          <mxGeometry y="52" width="140" height="26" as="geometry" />
        </mxCell>
        <mxCell id="kD_PjFbSkgv6lHSdd8yk-42" value="Operator" style="swimlane;fontStyle=0;childLayout=stackLayout;horizontal=1;startSize=26;fillColor=none;horizontalStack=0;resizeParent=1;resizeParentMax=0;resizeLast=0;collapsible=1;marginBottom=0;whiteSpace=wrap;html=1;" vertex="1" parent="1">
          <mxGeometry x="-250" y="162" width="140" height="78" as="geometry" />
        </mxCell>
        <mxCell id="kD_PjFbSkgv6lHSdd8yk-43" value="+ username: String" style="text;strokeColor=none;fillColor=none;align=left;verticalAlign=top;spacingLeft=4;spacingRight=4;overflow=hidden;rotatable=0;points=[[0,0.5],[1,0.5]];portConstraint=eastwest;whiteSpace=wrap;html=1;" vertex="1" parent="kD_PjFbSkgv6lHSdd8yk-42">
          <mxGeometry y="26" width="140" height="26" as="geometry" />
        </mxCell>
        <mxCell id="kD_PjFbSkgv6lHSdd8yk-44" value="+ password: String" style="text;strokeColor=none;fillColor=none;align=left;verticalAlign=top;spacingLeft=4;spacingRight=4;overflow=hidden;rotatable=0;points=[[0,0.5],[1,0.5]];portConstraint=eastwest;whiteSpace=wrap;html=1;" vertex="1" parent="kD_PjFbSkgv6lHSdd8yk-42">
          <mxGeometry y="52" width="140" height="26" as="geometry" />
        </mxCell>
        <mxCell id="kD_PjFbSkgv6lHSdd8yk-45" value="Network" style="swimlane;fontStyle=0;childLayout=stackLayout;horizontal=1;startSize=26;fillColor=none;horizontalStack=0;resizeParent=1;resizeParentMax=0;resizeLast=0;collapsible=1;marginBottom=0;whiteSpace=wrap;html=1;" vertex="1" parent="1">
          <mxGeometry y="220" width="140" height="104" as="geometry" />
        </mxCell>
        <mxCell id="kD_PjFbSkgv6lHSdd8yk-46" value="+ code: String" style="text;strokeColor=none;fillColor=none;align=left;verticalAlign=top;spacingLeft=4;spacingRight=4;overflow=hidden;rotatable=0;points=[[0,0.5],[1,0.5]];portConstraint=eastwest;whiteSpace=wrap;html=1;" vertex="1" parent="kD_PjFbSkgv6lHSdd8yk-45">
          <mxGeometry y="26" width="140" height="26" as="geometry" />
        </mxCell>
        <mxCell id="kD_PjFbSkgv6lHSdd8yk-48" value="+ name: String" style="text;strokeColor=none;fillColor=none;align=left;verticalAlign=top;spacingLeft=4;spacingRight=4;overflow=hidden;rotatable=0;points=[[0,0.5],[1,0.5]];portConstraint=eastwest;whiteSpace=wrap;html=1;" vertex="1" parent="kD_PjFbSkgv6lHSdd8yk-45">
          <mxGeometry y="52" width="140" height="26" as="geometry" />
        </mxCell>
        <mxCell id="kD_PjFbSkgv6lHSdd8yk-47" value="+ description: String" style="text;strokeColor=none;fillColor=none;align=left;verticalAlign=top;spacingLeft=4;spacingRight=4;overflow=hidden;rotatable=0;points=[[0,0.5],[1,0.5]];portConstraint=eastwest;whiteSpace=wrap;html=1;" vertex="1" parent="kD_PjFbSkgv6lHSdd8yk-45">
          <mxGeometry y="78" width="140" height="26" as="geometry" />
        </mxCell>
        <mxCell id="kD_PjFbSkgv6lHSdd8yk-49" value="Gateway" style="swimlane;fontStyle=0;childLayout=stackLayout;horizontal=1;startSize=26;fillColor=none;horizontalStack=0;resizeParent=1;resizeParentMax=0;resizeLast=0;collapsible=1;marginBottom=0;whiteSpace=wrap;html=1;" vertex="1" parent="1">
          <mxGeometry y="16" width="140" height="104" as="geometry" />
        </mxCell>
        <mxCell id="kD_PjFbSkgv6lHSdd8yk-50" value="+ macAddress: String" style="text;strokeColor=none;fillColor=none;align=left;verticalAlign=top;spacingLeft=4;spacingRight=4;overflow=hidden;rotatable=0;points=[[0,0.5],[1,0.5]];portConstraint=eastwest;whiteSpace=wrap;html=1;" vertex="1" parent="kD_PjFbSkgv6lHSdd8yk-49">
          <mxGeometry y="26" width="140" height="26" as="geometry" />
        </mxCell>
        <mxCell id="kD_PjFbSkgv6lHSdd8yk-51" value="+ name: String" style="text;strokeColor=none;fillColor=none;align=left;verticalAlign=top;spacingLeft=4;spacingRight=4;overflow=hidden;rotatable=0;points=[[0,0.5],[1,0.5]];portConstraint=eastwest;whiteSpace=wrap;html=1;" vertex="1" parent="kD_PjFbSkgv6lHSdd8yk-49">
          <mxGeometry y="52" width="140" height="26" as="geometry" />
        </mxCell>
        <mxCell id="kD_PjFbSkgv6lHSdd8yk-52" value="+ description: String" style="text;strokeColor=none;fillColor=none;align=left;verticalAlign=top;spacingLeft=4;spacingRight=4;overflow=hidden;rotatable=0;points=[[0,0.5],[1,0.5]];portConstraint=eastwest;whiteSpace=wrap;html=1;" vertex="1" parent="kD_PjFbSkgv6lHSdd8yk-49">
          <mxGeometry y="78" width="140" height="26" as="geometry" />
        </mxCell>
        <mxCell id="kD_PjFbSkgv6lHSdd8yk-53" value="Sensor" style="swimlane;fontStyle=0;childLayout=stackLayout;horizontal=1;startSize=26;fillColor=none;horizontalStack=0;resizeParent=1;resizeParentMax=0;resizeLast=0;collapsible=1;marginBottom=0;whiteSpace=wrap;html=1;" vertex="1" parent="1">
          <mxGeometry y="-220" width="140" height="156" as="geometry" />
        </mxCell>
        <mxCell id="kD_PjFbSkgv6lHSdd8yk-54" value="+ macAddress: String" style="text;strokeColor=none;fillColor=none;align=left;verticalAlign=top;spacingLeft=4;spacingRight=4;overflow=hidden;rotatable=0;points=[[0,0.5],[1,0.5]];portConstraint=eastwest;whiteSpace=wrap;html=1;" vertex="1" parent="kD_PjFbSkgv6lHSdd8yk-53">
          <mxGeometry y="26" width="140" height="26" as="geometry" />
        </mxCell>
        <mxCell id="kD_PjFbSkgv6lHSdd8yk-55" value="+ name: String" style="text;strokeColor=none;fillColor=none;align=left;verticalAlign=top;spacingLeft=4;spacingRight=4;overflow=hidden;rotatable=0;points=[[0,0.5],[1,0.5]];portConstraint=eastwest;whiteSpace=wrap;html=1;" vertex="1" parent="kD_PjFbSkgv6lHSdd8yk-53">
          <mxGeometry y="52" width="140" height="26" as="geometry" />
        </mxCell>
        <mxCell id="kD_PjFbSkgv6lHSdd8yk-57" value="+ description: String" style="text;strokeColor=none;fillColor=none;align=left;verticalAlign=top;spacingLeft=4;spacingRight=4;overflow=hidden;rotatable=0;points=[[0,0.5],[1,0.5]];portConstraint=eastwest;whiteSpace=wrap;html=1;" vertex="1" parent="kD_PjFbSkgv6lHSdd8yk-53">
          <mxGeometry y="78" width="140" height="26" as="geometry" />
        </mxCell>
        <mxCell id="kD_PjFbSkgv6lHSdd8yk-58" value="+ measure: String" style="text;strokeColor=none;fillColor=none;align=left;verticalAlign=top;spacingLeft=4;spacingRight=4;overflow=hidden;rotatable=0;points=[[0,0.5],[1,0.5]];portConstraint=eastwest;whiteSpace=wrap;html=1;" vertex="1" parent="kD_PjFbSkgv6lHSdd8yk-53">
          <mxGeometry y="104" width="140" height="26" as="geometry" />
        </mxCell>
        <mxCell id="kD_PjFbSkgv6lHSdd8yk-56" value="+ unitMeasure: String" style="text;strokeColor=none;fillColor=none;align=left;verticalAlign=top;spacingLeft=4;spacingRight=4;overflow=hidden;rotatable=0;points=[[0,0.5],[1,0.5]];portConstraint=eastwest;whiteSpace=wrap;html=1;" vertex="1" parent="kD_PjFbSkgv6lHSdd8yk-53">
          <mxGeometry y="130" width="140" height="26" as="geometry" />
        </mxCell>
        <mxCell id="kD_PjFbSkgv6lHSdd8yk-59" value="Measurement" style="swimlane;fontStyle=0;childLayout=stackLayout;horizontal=1;startSize=26;fillColor=none;horizontalStack=0;resizeParent=1;resizeParentMax=0;resizeLast=0;collapsible=1;marginBottom=0;whiteSpace=wrap;html=1;" vertex="1" parent="1">
          <mxGeometry x="-240" y="-120" width="140" height="104" as="geometry" />
        </mxCell>
        <mxCell id="kD_PjFbSkgv6lHSdd8yk-60" value="+ createdAt: DateTime" style="text;strokeColor=none;fillColor=none;align=left;verticalAlign=top;spacingLeft=4;spacingRight=4;overflow=hidden;rotatable=0;points=[[0,0.5],[1,0.5]];portConstraint=eastwest;whiteSpace=wrap;html=1;" vertex="1" parent="kD_PjFbSkgv6lHSdd8yk-59">
          <mxGeometry y="26" width="140" height="26" as="geometry" />
        </mxCell>
        <mxCell id="kD_PjFbSkgv6lHSdd8yk-61" value="+ value: Float" style="text;strokeColor=none;fillColor=none;align=left;verticalAlign=top;spacingLeft=4;spacingRight=4;overflow=hidden;rotatable=0;points=[[0,0.5],[1,0.5]];portConstraint=eastwest;whiteSpace=wrap;html=1;" vertex="1" parent="kD_PjFbSkgv6lHSdd8yk-59">
          <mxGeometry y="52" width="140" height="26" as="geometry" />
        </mxCell>
        <mxCell id="kD_PjFbSkgv6lHSdd8yk-62" value="+ isOutlier: Boolean" style="text;strokeColor=none;fillColor=none;align=left;verticalAlign=top;spacingLeft=4;spacingRight=4;overflow=hidden;rotatable=0;points=[[0,0.5],[1,0.5]];portConstraint=eastwest;whiteSpace=wrap;html=1;" vertex="1" parent="kD_PjFbSkgv6lHSdd8yk-59">
          <mxGeometry y="78" width="140" height="26" as="geometry" />
        </mxCell>
        <mxCell id="kD_PjFbSkgv6lHSdd8yk-71" value="" style="endArrow=none;html=1;rounded=0;entryX=0.47;entryY=1.085;entryDx=0;entryDy=0;entryPerimeter=0;exitX=0;exitY=0.5;exitDx=0;exitDy=0;" edge="1" parent="1" source="kD_PjFbSkgv6lHSdd8yk-48" target="kD_PjFbSkgv6lHSdd8yk-44">
          <mxGeometry width="50" height="50" relative="1" as="geometry">
            <mxPoint x="-210" y="340" as="sourcePoint" />
            <mxPoint x="-160" y="290" as="targetPoint" />
            <Array as="points">
              <mxPoint x="-184" y="285" />
            </Array>
          </mxGeometry>
        </mxCell>
        <mxCell id="kD_PjFbSkgv6lHSdd8yk-72" value="manages" style="edgeLabel;html=1;align=center;verticalAlign=middle;resizable=0;points=[];" vertex="1" connectable="0" parent="kD_PjFbSkgv6lHSdd8yk-71">
          <mxGeometry x="0.8413" y="-1" relative="1" as="geometry">
            <mxPoint y="12" as="offset" />
          </mxGeometry>
        </mxCell>
        <mxCell id="kD_PjFbSkgv6lHSdd8yk-73" value="N" style="edgeLabel;html=1;align=center;verticalAlign=middle;resizable=0;points=[];" vertex="1" connectable="0" parent="kD_PjFbSkgv6lHSdd8yk-71">
          <mxGeometry x="0.8989" y="-2" relative="1" as="geometry">
            <mxPoint x="12" y="-4" as="offset" />
          </mxGeometry>
        </mxCell>
        <mxCell id="kD_PjFbSkgv6lHSdd8yk-74" value="1" style="edgeLabel;html=1;align=center;verticalAlign=middle;resizable=0;points=[];" vertex="1" connectable="0" parent="1">
          <mxGeometry x="-119.99602677232937" y="276.0028980963775" as="geometry">
            <mxPoint x="107" y="-1" as="offset" />
          </mxGeometry>
        </mxCell>
        <mxCell id="kD_PjFbSkgv6lHSdd8yk-75" value="" style="endArrow=none;html=1;rounded=0;entryX=0.449;entryY=0.954;entryDx=0;entryDy=0;entryPerimeter=0;" edge="1" parent="1" target="kD_PjFbSkgv6lHSdd8yk-62">
          <mxGeometry width="50" height="50" relative="1" as="geometry">
            <mxPoint x="-180" y="160" as="sourcePoint" />
            <mxPoint x="-250" y="16" as="targetPoint" />
            <Array as="points" />
          </mxGeometry>
        </mxCell>
        <mxCell id="kD_PjFbSkgv6lHSdd8yk-76" value="inserts" style="edgeLabel;html=1;align=center;verticalAlign=middle;resizable=0;points=[];" vertex="1" connectable="0" parent="kD_PjFbSkgv6lHSdd8yk-75">
          <mxGeometry x="0.8413" y="-1" relative="1" as="geometry">
            <mxPoint x="-13" y="133" as="offset" />
          </mxGeometry>
        </mxCell>
        <mxCell id="kD_PjFbSkgv6lHSdd8yk-77" value="N" style="edgeLabel;html=1;align=center;verticalAlign=middle;resizable=0;points=[];" vertex="1" connectable="0" parent="kD_PjFbSkgv6lHSdd8yk-75">
          <mxGeometry x="0.8989" y="-2" relative="1" as="geometry">
            <mxPoint x="6" y="8" as="offset" />
          </mxGeometry>
        </mxCell>
        <mxCell id="kD_PjFbSkgv6lHSdd8yk-79" value="1" style="edgeLabel;html=1;align=center;verticalAlign=middle;resizable=0;points=[];" vertex="1" connectable="0" parent="1">
          <mxGeometry x="-160.00326720813172" y="10.015538490464905" as="geometry">
            <mxPoint x="-4" y="140" as="offset" />
          </mxGeometry>
        </mxCell>
        <mxCell id="kD_PjFbSkgv6lHSdd8yk-80" value="" style="endArrow=none;html=1;rounded=0;entryX=0.509;entryY=1.145;entryDx=0;entryDy=0;entryPerimeter=0;exitX=0.5;exitY=0;exitDx=0;exitDy=0;" edge="1" parent="1" source="kD_PjFbSkgv6lHSdd8yk-45" target="kD_PjFbSkgv6lHSdd8yk-52">
          <mxGeometry width="50" height="50" relative="1" as="geometry">
            <mxPoint x="-50" y="276" as="sourcePoint" />
            <mxPoint x="-37" y="99" as="targetPoint" />
            <Array as="points" />
          </mxGeometry>
        </mxCell>
        <mxCell id="kD_PjFbSkgv6lHSdd8yk-81" value="contains" style="edgeLabel;html=1;align=center;verticalAlign=middle;resizable=0;points=[];" vertex="1" connectable="0" parent="kD_PjFbSkgv6lHSdd8yk-80">
          <mxGeometry x="0.8413" y="-1" relative="1" as="geometry">
            <mxPoint x="-2" y="59" as="offset" />
          </mxGeometry>
        </mxCell>
        <mxCell id="kD_PjFbSkgv6lHSdd8yk-82" value="N" style="edgeLabel;html=1;align=center;verticalAlign=middle;resizable=0;points=[];" vertex="1" connectable="0" parent="kD_PjFbSkgv6lHSdd8yk-80">
          <mxGeometry x="0.8989" y="-2" relative="1" as="geometry">
            <mxPoint x="6" y="8" as="offset" />
          </mxGeometry>
        </mxCell>
        <mxCell id="kD_PjFbSkgv6lHSdd8yk-83" value="1" style="edgeLabel;html=1;align=center;verticalAlign=middle;resizable=0;points=[];" vertex="1" connectable="0" parent="1">
          <mxGeometry x="89.99673279186828" y="67.9955384904649" as="geometry">
            <mxPoint x="-4" y="140" as="offset" />
          </mxGeometry>
        </mxCell>
        <mxCell id="kD_PjFbSkgv6lHSdd8yk-84" value="" style="endArrow=none;html=1;rounded=0;entryX=0.466;entryY=1.101;entryDx=0;entryDy=0;entryPerimeter=0;exitX=0.5;exitY=0;exitDx=0;exitDy=0;" edge="1" parent="1" source="kD_PjFbSkgv6lHSdd8yk-49" target="kD_PjFbSkgv6lHSdd8yk-56">
          <mxGeometry width="50" height="50" relative="1" as="geometry">
            <mxPoint x="70" y="10" as="sourcePoint" />
            <mxPoint x="81" y="134" as="targetPoint" />
            <Array as="points" />
          </mxGeometry>
        </mxCell>
        <mxCell id="kD_PjFbSkgv6lHSdd8yk-85" value="contains" style="edgeLabel;html=1;align=center;verticalAlign=middle;resizable=0;points=[];" vertex="1" connectable="0" parent="kD_PjFbSkgv6lHSdd8yk-84">
          <mxGeometry x="0.8413" y="-1" relative="1" as="geometry">
            <mxPoint x="3" y="45" as="offset" />
          </mxGeometry>
        </mxCell>
        <mxCell id="kD_PjFbSkgv6lHSdd8yk-86" value="N" style="edgeLabel;html=1;align=center;verticalAlign=middle;resizable=0;points=[];" vertex="1" connectable="0" parent="kD_PjFbSkgv6lHSdd8yk-84">
          <mxGeometry x="0.8989" y="-2" relative="1" as="geometry">
            <mxPoint x="6" y="8" as="offset" />
          </mxGeometry>
        </mxCell>
        <mxCell id="kD_PjFbSkgv6lHSdd8yk-87" value="1" style="edgeLabel;html=1;align=center;verticalAlign=middle;resizable=0;points=[];" vertex="1" connectable="0" parent="1">
          <mxGeometry x="89.19685784362491" y="146.6054499797881" as="geometry">
            <mxPoint x="-11" y="-138" as="offset" />
          </mxGeometry>
        </mxCell>
        <mxCell id="kD_PjFbSkgv6lHSdd8yk-88" value="" style="endArrow=none;html=1;rounded=0;entryX=-0.024;entryY=0.789;entryDx=0;entryDy=0;entryPerimeter=0;exitX=1.004;exitY=0.815;exitDx=0;exitDy=0;exitPerimeter=0;" edge="1" parent="1">
          <mxGeometry width="50" height="50" relative="1" as="geometry">
            <mxPoint x="-96.00000000000006" y="-75.32000000000018" as="sourcePoint" />
            <mxPoint x="0.08000000000009999" y="-149.9960000000001" as="targetPoint" />
            <Array as="points" />
          </mxGeometry>
        </mxCell>
        <mxCell id="kD_PjFbSkgv6lHSdd8yk-89" value="belongs" style="edgeLabel;html=1;align=center;verticalAlign=middle;resizable=0;points=[];" vertex="1" connectable="0" parent="kD_PjFbSkgv6lHSdd8yk-88">
          <mxGeometry x="0.8413" y="-1" relative="1" as="geometry">
            <mxPoint x="-63" y="54" as="offset" />
          </mxGeometry>
        </mxCell>
        <mxCell id="kD_PjFbSkgv6lHSdd8yk-90" value="1" style="edgeLabel;html=1;align=center;verticalAlign=middle;resizable=0;points=[];" vertex="1" connectable="0" parent="kD_PjFbSkgv6lHSdd8yk-88">
          <mxGeometry x="0.8989" y="-2" relative="1" as="geometry">
            <mxPoint x="-6" y="14" as="offset" />
          </mxGeometry>
        </mxCell>
        <mxCell id="kD_PjFbSkgv6lHSdd8yk-91" value="N" style="edgeLabel;html=1;align=center;verticalAlign=middle;resizable=0;points=[];" vertex="1" connectable="0" parent="1">
          <mxGeometry x="0.21505251599955955" y="-120.4590098538863" as="geometry">
            <mxPoint x="-78" y="78" as="offset" />
          </mxGeometry>
        </mxCell>
        <mxCell id="kD_PjFbSkgv6lHSdd8yk-92" value="" style="endArrow=none;html=1;rounded=0;entryX=0;entryY=0.5;entryDx=0;entryDy=0;exitX=1;exitY=0.834;exitDx=0;exitDy=0;exitPerimeter=0;" edge="1" parent="1" source="kD_PjFbSkgv6lHSdd8yk-57" target="kD_PjFbSkgv6lHSdd8yk-31">
          <mxGeometry width="50" height="50" relative="1" as="geometry">
            <mxPoint x="109.99999999999994" y="-83.12000000000018" as="sourcePoint" />
            <mxPoint x="206.0800000000001" y="-157.7960000000001" as="targetPoint" />
            <Array as="points" />
          </mxGeometry>
        </mxCell>
        <mxCell id="kD_PjFbSkgv6lHSdd8yk-93" value="associated with" style="edgeLabel;html=1;align=center;verticalAlign=middle;resizable=0;points=[];" vertex="1" connectable="0" parent="kD_PjFbSkgv6lHSdd8yk-92">
          <mxGeometry x="0.8413" y="-1" relative="1" as="geometry">
            <mxPoint x="-33" y="-12" as="offset" />
          </mxGeometry>
        </mxCell>
        <mxCell id="kD_PjFbSkgv6lHSdd8yk-94" value="1" style="edgeLabel;html=1;align=center;verticalAlign=middle;resizable=0;points=[];" vertex="1" connectable="0" parent="kD_PjFbSkgv6lHSdd8yk-92">
          <mxGeometry x="0.8989" y="-2" relative="1" as="geometry">
            <mxPoint x="-117" y="8" as="offset" />
          </mxGeometry>
        </mxCell>
        <mxCell id="kD_PjFbSkgv6lHSdd8yk-95" value="1" style="edgeLabel;html=1;align=center;verticalAlign=middle;resizable=0;points=[];" vertex="1" connectable="0" parent="1">
          <mxGeometry x="270.86638763012866" y="-93.52679769539463" as="geometry">
            <mxPoint x="-13" y="-17" as="offset" />
          </mxGeometry>
        </mxCell>
        <mxCell id="kD_PjFbSkgv6lHSdd8yk-96" value="" style="endArrow=none;html=1;rounded=0;entryX=0.498;entryY=1.012;entryDx=0;entryDy=0;entryPerimeter=0;exitX=0.5;exitY=0;exitDx=0;exitDy=0;" edge="1" parent="1" source="kD_PjFbSkgv6lHSdd8yk-1" target="kD_PjFbSkgv6lHSdd8yk-29">
          <mxGeometry width="50" height="50" relative="1" as="geometry">
            <mxPoint x="80" y="26" as="sourcePoint" />
            <mxPoint x="75" y="-51" as="targetPoint" />
            <Array as="points" />
          </mxGeometry>
        </mxCell>
        <mxCell id="kD_PjFbSkgv6lHSdd8yk-97" value="collects" style="edgeLabel;html=1;align=center;verticalAlign=middle;resizable=0;points=[];" vertex="1" connectable="0" parent="kD_PjFbSkgv6lHSdd8yk-96">
          <mxGeometry x="0.8413" y="-1" relative="1" as="geometry">
            <mxPoint x="-5" y="96" as="offset" />
          </mxGeometry>
        </mxCell>
        <mxCell id="kD_PjFbSkgv6lHSdd8yk-98" value="N" style="edgeLabel;html=1;align=center;verticalAlign=middle;resizable=0;points=[];" vertex="1" connectable="0" parent="kD_PjFbSkgv6lHSdd8yk-96">
          <mxGeometry x="0.8989" y="-2" relative="1" as="geometry">
            <mxPoint x="6" y="8" as="offset" />
          </mxGeometry>
        </mxCell>
        <mxCell id="kD_PjFbSkgv6lHSdd8yk-99" value="1" style="edgeLabel;html=1;align=center;verticalAlign=middle;resizable=0;points=[];" vertex="1" connectable="0" parent="1">
          <mxGeometry x="361.7345602939058" y="-2.530113055034917" as="geometry">
            <mxPoint x="-3" y="103" as="offset" />
          </mxGeometry>
        </mxCell>
        <mxCell id="kD_PjFbSkgv6lHSdd8yk-100" value="" style="endArrow=none;html=1;rounded=0;entryX=0.245;entryY=1.158;entryDx=0;entryDy=0;entryPerimeter=0;exitX=0.852;exitY=-0.043;exitDx=0;exitDy=0;exitPerimeter=0;" edge="1" parent="1" source="kD_PjFbSkgv6lHSdd8yk-39" target="kD_PjFbSkgv6lHSdd8yk-4">
          <mxGeometry width="50" height="50" relative="1" as="geometry">
            <mxPoint x="310" y="341" as="sourcePoint" />
            <mxPoint x="310" y="203" as="targetPoint" />
            <Array as="points" />
          </mxGeometry>
        </mxCell>
        <mxCell id="kD_PjFbSkgv6lHSdd8yk-101" value="has" style="edgeLabel;html=1;align=center;verticalAlign=middle;resizable=0;points=[];" vertex="1" connectable="0" parent="kD_PjFbSkgv6lHSdd8yk-100">
          <mxGeometry x="0.8413" y="-1" relative="1" as="geometry">
            <mxPoint x="1" y="22" as="offset" />
          </mxGeometry>
        </mxCell>
        <mxCell id="kD_PjFbSkgv6lHSdd8yk-102" value="1" style="edgeLabel;html=1;align=center;verticalAlign=middle;resizable=0;points=[];" vertex="1" connectable="0" parent="kD_PjFbSkgv6lHSdd8yk-100">
          <mxGeometry x="0.8989" y="-2" relative="1" as="geometry">
            <mxPoint x="6" y="8" as="offset" />
          </mxGeometry>
        </mxCell>
        <mxCell id="kD_PjFbSkgv6lHSdd8yk-103" value="N" style="edgeLabel;html=1;align=center;verticalAlign=middle;resizable=0;points=[];" vertex="1" connectable="0" parent="1">
          <mxGeometry x="329.998903386689" y="210.00068392480392" as="geometry">
            <mxPoint x="-8" y="164" as="offset" />
          </mxGeometry>
        </mxCell>
        <mxCell id="kD_PjFbSkgv6lHSdd8yk-104" value="" style="endArrow=none;html=1;rounded=0;entryX=0.086;entryY=1.01;entryDx=0;entryDy=0;entryPerimeter=0;exitX=0;exitY=0.5;exitDx=0;exitDy=0;" edge="1" parent="1" source="kD_PjFbSkgv6lHSdd8yk-40" target="kD_PjFbSkgv6lHSdd8yk-44">
          <mxGeometry width="50" height="50" relative="1" as="geometry">
            <mxPoint x="-56" y="393" as="sourcePoint" />
            <mxPoint x="-240" y="350" as="targetPoint" />
            <Array as="points">
              <mxPoint x="-240" y="393" />
            </Array>
          </mxGeometry>
        </mxCell>
        <mxCell id="kD_PjFbSkgv6lHSdd8yk-105" value="manages" style="edgeLabel;html=1;align=center;verticalAlign=middle;resizable=0;points=[];" vertex="1" connectable="0" parent="kD_PjFbSkgv6lHSdd8yk-104">
          <mxGeometry x="0.8413" y="-1" relative="1" as="geometry">
            <mxPoint x="348" y="153" as="offset" />
          </mxGeometry>
        </mxCell>
        <mxCell id="kD_PjFbSkgv6lHSdd8yk-106" value="N" style="edgeLabel;html=1;align=center;verticalAlign=middle;resizable=0;points=[];" vertex="1" connectable="0" parent="kD_PjFbSkgv6lHSdd8yk-104">
          <mxGeometry x="0.8989" y="-2" relative="1" as="geometry">
            <mxPoint x="-14" y="-10" as="offset" />
          </mxGeometry>
        </mxCell>
        <mxCell id="kD_PjFbSkgv6lHSdd8yk-107" value="N" style="edgeLabel;html=1;align=center;verticalAlign=middle;resizable=0;points=[];" vertex="1" connectable="0" parent="1">
          <mxGeometry x="-240.00091380264044" y="260.00206828492577" as="geometry">
            <mxPoint x="412" y="152" as="offset" />
          </mxGeometry>
        </mxCell>
        <mxCell id="kD_PjFbSkgv6lHSdd8yk-109" value="" style="endArrow=none;html=1;rounded=0;entryX=0.479;entryY=1.202;entryDx=0;entryDy=0;entryPerimeter=0;exitX=0.4;exitY=-0.022;exitDx=0;exitDy=0;exitPerimeter=0;" edge="1" parent="1" source="kD_PjFbSkgv6lHSdd8yk-39" target="kD_PjFbSkgv6lHSdd8yk-47">
          <mxGeometry width="50" height="50" relative="1" as="geometry">
            <mxPoint x="224" y="383" as="sourcePoint" />
            <mxPoint x="40" y="340" as="targetPoint" />
            <Array as="points" />
          </mxGeometry>
        </mxCell>
        <mxCell id="kD_PjFbSkgv6lHSdd8yk-110" value="manages" style="edgeLabel;html=1;align=center;verticalAlign=middle;resizable=0;points=[];" vertex="1" connectable="0" parent="kD_PjFbSkgv6lHSdd8yk-109">
          <mxGeometry x="0.8413" y="-1" relative="1" as="geometry">
            <mxPoint x="109" y="37" as="offset" />
          </mxGeometry>
        </mxCell>
        <mxCell id="kD_PjFbSkgv6lHSdd8yk-111" value="1" style="edgeLabel;html=1;align=center;verticalAlign=middle;resizable=0;points=[];" vertex="1" connectable="0" parent="kD_PjFbSkgv6lHSdd8yk-109">
          <mxGeometry x="0.8989" y="-2" relative="1" as="geometry">
            <mxPoint x="-17" y="10" as="offset" />
          </mxGeometry>
        </mxCell>
        <mxCell id="kD_PjFbSkgv6lHSdd8yk-112" value="N" style="edgeLabel;html=1;align=center;verticalAlign=middle;resizable=0;points=[];" vertex="1" connectable="0" parent="1">
          <mxGeometry x="49.99532233233605" y="333.00403537299155" as="geometry">
            <mxPoint x="207" y="45" as="offset" />
          </mxGeometry>
        </mxCell>
        <mxCell id="kD_PjFbSkgv6lHSdd8yk-113" value="" style="endArrow=none;html=1;rounded=0;exitX=1;exitY=0.5;exitDx=0;exitDy=0;" edge="1" parent="1" source="kD_PjFbSkgv6lHSdd8yk-40" target="kD_PjFbSkgv6lHSdd8yk-17">
          <mxGeometry width="50" height="50" relative="1" as="geometry">
            <mxPoint x="760" y="479" as="sourcePoint" />
            <mxPoint x="332" y="290" as="targetPoint" />
            <Array as="points">
              <mxPoint x="610" y="390" />
            </Array>
          </mxGeometry>
        </mxCell>
        <mxCell id="kD_PjFbSkgv6lHSdd8yk-114" value="manages" style="edgeLabel;html=1;align=center;verticalAlign=middle;resizable=0;points=[];" vertex="1" connectable="0" parent="kD_PjFbSkgv6lHSdd8yk-113">
          <mxGeometry x="0.8413" y="-1" relative="1" as="geometry">
            <mxPoint x="348" y="153" as="offset" />
          </mxGeometry>
        </mxCell>
        <mxCell id="kD_PjFbSkgv6lHSdd8yk-115" value="N" style="edgeLabel;html=1;align=center;verticalAlign=middle;resizable=0;points=[];" vertex="1" connectable="0" parent="kD_PjFbSkgv6lHSdd8yk-113">
          <mxGeometry x="0.8989" y="-2" relative="1" as="geometry">
            <mxPoint x="-14" y="-10" as="offset" />
          </mxGeometry>
        </mxCell>
        <mxCell id="kD_PjFbSkgv6lHSdd8yk-116" value="manages" style="edgeLabel;html=1;align=center;verticalAlign=middle;resizable=0;points=[];" vertex="1" connectable="0" parent="1">
          <mxGeometry x="120.42457127067405" y="449.34539542164885" as="geometry">
            <mxPoint x="337" y="-17" as="offset" />
          </mxGeometry>
        </mxCell>
        <mxCell id="kD_PjFbSkgv6lHSdd8yk-117" value="N" style="edgeLabel;html=1;align=center;verticalAlign=middle;resizable=0;points=[];" vertex="1" connectable="0" parent="1">
          <mxGeometry x="756.9097115649288" y="231.12359782023077" as="geometry">
            <mxPoint x="-397" y="186" as="offset" />
          </mxGeometry>
        </mxCell>
        <mxCell id="kD_PjFbSkgv6lHSdd8yk-118" value="" style="endArrow=none;html=1;rounded=0;entryX=1;entryY=0.5;entryDx=0;entryDy=0;exitX=0;exitY=0.5;exitDx=0;exitDy=0;" edge="1" parent="1" source="kD_PjFbSkgv6lHSdd8yk-13" target="kD_PjFbSkgv6lHSdd8yk-2">
          <mxGeometry width="50" height="50" relative="1" as="geometry">
            <mxPoint x="319" y="397" as="sourcePoint" />
            <mxPoint x="318" y="202" as="targetPoint" />
            <Array as="points" />
          </mxGeometry>
        </mxCell>
        <mxCell id="kD_PjFbSkgv6lHSdd8yk-119" value="has" style="edgeLabel;html=1;align=center;verticalAlign=middle;resizable=0;points=[];" vertex="1" connectable="0" parent="kD_PjFbSkgv6lHSdd8yk-118">
          <mxGeometry x="0.8413" y="-1" relative="1" as="geometry">
            <mxPoint x="31" y="17" as="offset" />
          </mxGeometry>
        </mxCell>
        <mxCell id="kD_PjFbSkgv6lHSdd8yk-120" value="1" style="edgeLabel;html=1;align=center;verticalAlign=middle;resizable=0;points=[];" vertex="1" connectable="0" parent="kD_PjFbSkgv6lHSdd8yk-118">
          <mxGeometry x="0.8989" y="-2" relative="1" as="geometry">
            <mxPoint x="-1" y="18" as="offset" />
          </mxGeometry>
        </mxCell>
        <mxCell id="kD_PjFbSkgv6lHSdd8yk-121" value="N" style="edgeLabel;html=1;align=center;verticalAlign=middle;resizable=0;points=[];" vertex="1" connectable="0" parent="1">
          <mxGeometry x="539.9997115649288" y="120.00359782023077" as="geometry">
            <mxPoint x="-70" y="-55" as="offset" />
          </mxGeometry>
        </mxCell>
        <mxCell id="kD_PjFbSkgv6lHSdd8yk-122" value="" style="endArrow=none;html=1;rounded=0;entryX=1.013;entryY=-0.077;entryDx=0;entryDy=0;exitX=0;exitY=0.5;exitDx=0;exitDy=0;entryPerimeter=0;" edge="1" parent="1" source="kD_PjFbSkgv6lHSdd8yk-16" target="kD_PjFbSkgv6lHSdd8yk-13">
          <mxGeometry width="50" height="50" relative="1" as="geometry">
            <mxPoint x="500" y="249" as="sourcePoint" />
            <mxPoint x="424" y="159" as="targetPoint" />
            <Array as="points" />
          </mxGeometry>
        </mxCell>
        <mxCell id="kD_PjFbSkgv6lHSdd8yk-123" value="uses" style="edgeLabel;html=1;align=center;verticalAlign=middle;resizable=0;points=[];" vertex="1" connectable="0" parent="kD_PjFbSkgv6lHSdd8yk-122">
          <mxGeometry x="0.8413" y="-1" relative="1" as="geometry">
            <mxPoint x="42" y="-9" as="offset" />
          </mxGeometry>
        </mxCell>
        <mxCell id="kD_PjFbSkgv6lHSdd8yk-124" value="1" style="edgeLabel;html=1;align=center;verticalAlign=middle;resizable=0;points=[];" vertex="1" connectable="0" parent="kD_PjFbSkgv6lHSdd8yk-122">
          <mxGeometry x="0.8989" y="-2" relative="1" as="geometry">
            <mxPoint x="-1" y="18" as="offset" />
          </mxGeometry>
        </mxCell>
        <mxCell id="kD_PjFbSkgv6lHSdd8yk-125" value="1" style="edgeLabel;html=1;align=center;verticalAlign=middle;resizable=0;points=[];" vertex="1" connectable="0" parent="1">
          <mxGeometry x="756.9097115649288" y="231.12359782023077" as="geometry">
            <mxPoint x="-49" y="-65" as="offset" />
          </mxGeometry>
        </mxCell>
        <mxCell id="kD_PjFbSkgv6lHSdd8yk-126" value="" style="endArrow=none;html=1;rounded=0;entryX=1;entryY=0.5;entryDx=0;entryDy=0;exitX=0;exitY=0.5;exitDx=0;exitDy=0;" edge="1" parent="1" source="kD_PjFbSkgv6lHSdd8yk-25" target="kD_PjFbSkgv6lHSdd8yk-33">
          <mxGeometry width="50" height="50" relative="1" as="geometry">
            <mxPoint x="354" y="120" as="sourcePoint" />
            <mxPoint x="354" y="-18" as="targetPoint" />
            <Array as="points" />
          </mxGeometry>
        </mxCell>
        <mxCell id="kD_PjFbSkgv6lHSdd8yk-127" value="collects" style="edgeLabel;html=1;align=center;verticalAlign=middle;resizable=0;points=[];" vertex="1" connectable="0" parent="kD_PjFbSkgv6lHSdd8yk-126">
          <mxGeometry x="0.8413" y="-1" relative="1" as="geometry">
            <mxPoint x="60" y="-7" as="offset" />
          </mxGeometry>
        </mxCell>
        <mxCell id="kD_PjFbSkgv6lHSdd8yk-128" value="N" style="edgeLabel;html=1;align=center;verticalAlign=middle;resizable=0;points=[];" vertex="1" connectable="0" parent="kD_PjFbSkgv6lHSdd8yk-126">
          <mxGeometry x="0.8989" y="-2" relative="1" as="geometry">
            <mxPoint x="5" y="15" as="offset" />
          </mxGeometry>
        </mxCell>
        <mxCell id="kD_PjFbSkgv6lHSdd8yk-129" value="1" style="edgeLabel;html=1;align=center;verticalAlign=middle;resizable=0;points=[];" vertex="1" connectable="0" parent="1">
          <mxGeometry x="441.71878361123254" y="-68.5696780716703" as="geometry">
            <mxPoint x="45" y="-6" as="offset" />
          </mxGeometry>
        </mxCell>
        <mxCell id="kD_PjFbSkgv6lHSdd8yk-130" value="" style="endArrow=none;html=1;rounded=0;entryX=1;entryY=0.25;entryDx=0;entryDy=0;exitX=0;exitY=0.5;exitDx=0;exitDy=0;" edge="1" parent="1">
          <mxGeometry width="50" height="50" relative="1" as="geometry">
            <mxPoint x="490" y="70" as="sourcePoint" />
            <mxPoint x="414" y="118.49999999999955" as="targetPoint" />
            <Array as="points" />
          </mxGeometry>
        </mxCell>
        <mxCell id="kD_PjFbSkgv6lHSdd8yk-131" value="receives" style="edgeLabel;html=1;align=center;verticalAlign=middle;resizable=0;points=[];" vertex="1" connectable="0" parent="kD_PjFbSkgv6lHSdd8yk-130">
          <mxGeometry x="0.8413" y="-1" relative="1" as="geometry">
            <mxPoint x="30" as="offset" />
          </mxGeometry>
        </mxCell>
        <mxCell id="kD_PjFbSkgv6lHSdd8yk-132" value="1" style="edgeLabel;html=1;align=center;verticalAlign=middle;resizable=0;points=[];" vertex="1" connectable="0" parent="kD_PjFbSkgv6lHSdd8yk-130">
          <mxGeometry x="0.8989" y="-2" relative="1" as="geometry">
            <mxPoint x="-1" y="18" as="offset" />
          </mxGeometry>
        </mxCell>
        <mxCell id="kD_PjFbSkgv6lHSdd8yk-136" value="N" style="edgeLabel;html=1;align=center;verticalAlign=middle;resizable=0;points=[];" vertex="1" connectable="0" parent="1">
          <mxGeometry x="549.9997115649288" y="300.00359782023077" as="geometry">
            <mxPoint x="-70" y="-55" as="offset" />
          </mxGeometry>
        </mxCell>
        <mxCell id="kD_PjFbSkgv6lHSdd8yk-137" value="" style="endArrow=none;html=1;rounded=0;entryX=1.023;entryY=0.014;entryDx=0;entryDy=0;entryPerimeter=0;exitX=0;exitY=0.5;exitDx=0;exitDy=0;" edge="1" parent="1" source="kD_PjFbSkgv6lHSdd8yk-21" target="kD_PjFbSkgv6lHSdd8yk-20">
          <mxGeometry width="50" height="50" relative="1" as="geometry">
            <mxPoint x="354" y="120" as="sourcePoint" />
            <mxPoint x="354" y="-18" as="targetPoint" />
            <Array as="points" />
          </mxGeometry>
        </mxCell>
        <mxCell id="kD_PjFbSkgv6lHSdd8yk-138" value="belongs" style="edgeLabel;html=1;align=center;verticalAlign=middle;resizable=0;points=[];" vertex="1" connectable="0" parent="kD_PjFbSkgv6lHSdd8yk-137">
          <mxGeometry x="0.8413" y="-1" relative="1" as="geometry">
            <mxPoint x="9" y="-16" as="offset" />
          </mxGeometry>
        </mxCell>
        <mxCell id="kD_PjFbSkgv6lHSdd8yk-139" value="N" style="edgeLabel;html=1;align=center;verticalAlign=middle;resizable=0;points=[];" vertex="1" connectable="0" parent="kD_PjFbSkgv6lHSdd8yk-137">
          <mxGeometry x="0.8989" y="-2" relative="1" as="geometry">
            <mxPoint x="6" y="8" as="offset" />
          </mxGeometry>
        </mxCell>
        <mxCell id="kD_PjFbSkgv6lHSdd8yk-140" value="1" style="edgeLabel;html=1;align=center;verticalAlign=middle;resizable=0;points=[];" vertex="1" connectable="0" parent="1">
          <mxGeometry x="653.7668423389864" y="83.76686926894581" as="geometry">
            <mxPoint x="67" y="-14" as="offset" />
          </mxGeometry>
        </mxCell>
        <mxCell id="kD_PjFbSkgv6lHSdd8yk-141" value="" style="endArrow=none;html=1;rounded=0;entryX=0.795;entryY=1.077;entryDx=0;entryDy=0;exitX=0;exitY=0.25;exitDx=0;exitDy=0;entryPerimeter=0;" edge="1" parent="1" source="kD_PjFbSkgv6lHSdd8yk-15" target="kD_PjFbSkgv6lHSdd8yk-20">
          <mxGeometry width="50" height="50" relative="1" as="geometry">
            <mxPoint x="730" y="181" as="sourcePoint" />
            <mxPoint x="642" y="234" as="targetPoint" />
            <Array as="points" />
          </mxGeometry>
        </mxCell>
        <mxCell id="kD_PjFbSkgv6lHSdd8yk-142" value="does" style="edgeLabel;html=1;align=center;verticalAlign=middle;resizable=0;points=[];" vertex="1" connectable="0" parent="kD_PjFbSkgv6lHSdd8yk-141">
          <mxGeometry x="0.8413" y="-1" relative="1" as="geometry">
            <mxPoint x="68" y="50" as="offset" />
          </mxGeometry>
        </mxCell>
        <mxCell id="kD_PjFbSkgv6lHSdd8yk-143" value="1" style="edgeLabel;html=1;align=center;verticalAlign=middle;resizable=0;points=[];" vertex="1" connectable="0" parent="kD_PjFbSkgv6lHSdd8yk-141">
          <mxGeometry x="0.8989" y="-2" relative="1" as="geometry">
            <mxPoint x="-1" y="18" as="offset" />
          </mxGeometry>
        </mxCell>
      </root>
    </mxGraphModel>
  </diagram>
</mxfile>
